<svg width="36.000000" height="36.000000" viewBox="0 0 36 36" fill="none" xmlns="http://www.w3.org/2000/svg" xmlns:xlink="http://www.w3.org/1999/xlink">
	<desc>
			Created with Pixso.
	</desc>
	<defs>
		<clipPath id="clip2_156">
			<rect id="precipitation" rx="0.000000" width="35.000000" height="35.000000" transform="translate(0.500000 0.500000)" fill="white" fill-opacity="0"/>
		</clipPath>
	</defs>
	<g opacity="0.880000">
		<rect id="precipitation" rx="0.000000" width="35.000000" height="35.000000" transform="translate(0.500000 0.500000)" fill="#FFFFFF" fill-opacity="0"/>
		<g clip-path="url(#clip2_156)">
			<path id="Vector" d="M24.47 16.28C24.04 16.28 23.62 16.17 23.24 15.96C22.86 15.76 22.55 15.46 22.31 15.1C22.08 15.46 21.77 15.76 21.39 15.96C21.01 16.17 20.59 16.28 20.16 16.28C19.73 16.28 19.31 16.17 18.93 15.96C18.56 15.76 18.24 15.46 18.01 15.1C17.78 15.46 17.46 15.76 17.08 15.96C16.71 16.17 16.29 16.28 15.86 16.28C15.43 16.28 15.01 16.17 14.63 15.96C14.25 15.76 13.93 15.46 13.7 15.1C13.41 15.56 12.97 15.92 12.45 16.11C11.93 16.31 11.36 16.33 10.83 16.17C10.3 16.02 9.84 15.7 9.51 15.25C9.17 14.81 9 14.27 9 13.72C9 13.61 9.04 13.51 9.11 13.44C9.19 13.36 9.29 13.32 9.4 13.32C9.5 13.32 9.61 13.36 9.68 13.44C9.76 13.51 9.8 13.61 9.8 13.72C9.8 13.95 9.84 14.18 9.93 14.4C10.01 14.61 10.14 14.81 10.31 14.97C10.47 15.14 10.66 15.27 10.88 15.36C11.09 15.45 11.32 15.49 11.55 15.49C11.78 15.49 12.01 15.45 12.23 15.36C12.44 15.27 12.63 15.14 12.8 14.97C12.96 14.81 13.09 14.61 13.17 14.4C13.26 14.18 13.3 13.95 13.3 13.72C13.3 13.61 13.34 13.51 13.42 13.44C13.49 13.36 13.6 13.32 13.7 13.32C13.81 13.32 13.91 13.36 13.99 13.44C14.06 13.51 14.11 13.61 14.11 13.72C14.1 13.95 14.15 14.18 14.23 14.4C14.32 14.61 14.45 14.81 14.61 14.97C14.77 15.14 14.97 15.27 15.18 15.36C15.4 15.45 15.62 15.49 15.86 15.49C16.09 15.49 16.32 15.45 16.53 15.36C16.74 15.27 16.94 15.14 17.1 14.97C17.26 14.81 17.39 14.61 17.48 14.4C17.57 14.18 17.61 13.95 17.61 13.72C17.61 13.61 17.65 13.51 17.72 13.44C17.8 13.36 17.9 13.32 18.01 13.32C18.12 13.32 18.22 13.36 18.29 13.44C18.37 13.51 18.41 13.61 18.41 13.72C18.41 13.95 18.45 14.18 18.54 14.4C18.63 14.61 18.75 14.81 18.92 14.97C19.08 15.14 19.27 15.27 19.49 15.36C19.7 15.45 19.93 15.49 20.16 15.49C20.39 15.49 20.62 15.45 20.84 15.36C21.05 15.27 21.24 15.14 21.41 14.97C21.57 14.81 21.7 14.61 21.79 14.4C21.87 14.18 21.92 13.95 21.91 13.72C21.91 13.61 21.96 13.51 22.03 13.44C22.11 13.36 22.21 13.32 22.31 13.32C22.42 13.32 22.52 13.36 22.6 13.44C22.67 13.51 22.72 13.61 22.72 13.72C22.71 13.95 22.76 14.18 22.84 14.4C22.93 14.61 23.06 14.81 23.22 14.97C23.39 15.14 23.58 15.27 23.79 15.36C24.01 15.45 24.24 15.49 24.47 15.49C24.7 15.49 24.93 15.45 25.14 15.36C25.36 15.27 25.55 15.14 25.71 14.97C25.88 14.81 26 14.61 26.09 14.4C26.18 14.18 26.22 13.95 26.22 13.72C26.22 13.61 26.26 13.51 26.34 13.44C26.41 13.36 26.51 13.32 26.62 13.32C26.73 13.32 26.83 13.36 26.91 13.44C26.98 13.51 27.02 13.61 27.02 13.72C27.02 14.4 26.75 15.05 26.27 15.53C25.79 16.01 25.15 16.28 24.47 16.28Z" fill="#AFD1FD" fill-opacity="1.000000" fill-rule="nonzero"/>
			<path id="Vector" d="M24.47 21.02C24.04 21.02 23.62 20.91 23.24 20.71C22.86 20.5 22.55 20.2 22.31 19.84C22.08 20.2 21.77 20.5 21.39 20.71C21.01 20.91 20.59 21.02 20.16 21.02C19.73 21.02 19.31 20.91 18.93 20.71C18.56 20.5 18.24 20.2 18.01 19.84C17.78 20.2 17.46 20.5 17.08 20.71C16.71 20.91 16.29 21.02 15.86 21.02C15.43 21.02 15.01 20.91 14.63 20.71C14.25 20.5 13.93 20.2 13.7 19.84C13.41 20.31 12.97 20.67 12.45 20.86C11.93 21.05 11.36 21.08 10.83 20.92C10.3 20.77 9.84 20.44 9.51 20C9.17 19.56 8.99 19.02 9 18.47C9 18.36 9.04 18.26 9.11 18.18C9.19 18.11 9.29 18.07 9.4 18.07C9.5 18.07 9.61 18.11 9.68 18.18C9.76 18.26 9.8 18.36 9.8 18.47C9.8 18.7 9.84 18.93 9.93 19.14C10.01 19.36 10.14 19.55 10.31 19.72C10.47 19.88 10.66 20.01 10.88 20.1C11.09 20.19 11.32 20.24 11.55 20.24C11.78 20.24 12.01 20.19 12.22 20.1C12.44 20.01 12.63 19.88 12.8 19.72C12.96 19.55 13.09 19.36 13.17 19.14C13.26 18.93 13.3 18.7 13.3 18.47C13.3 18.36 13.34 18.26 13.42 18.18C13.49 18.11 13.6 18.07 13.7 18.07C13.81 18.07 13.91 18.11 13.99 18.18C14.06 18.26 14.11 18.36 14.11 18.47C14.1 18.7 14.15 18.93 14.23 19.14C14.32 19.36 14.45 19.55 14.61 19.72C14.77 19.88 14.97 20.01 15.18 20.1C15.39 20.19 15.62 20.24 15.86 20.24C16.09 20.24 16.32 20.19 16.53 20.1C16.74 20.01 16.94 19.88 17.1 19.72C17.26 19.55 17.39 19.36 17.48 19.14C17.57 18.93 17.61 18.7 17.61 18.47C17.61 18.36 17.65 18.26 17.72 18.18C17.8 18.11 17.9 18.07 18.01 18.07C18.12 18.07 18.22 18.11 18.29 18.18C18.37 18.26 18.41 18.36 18.41 18.47C18.41 18.7 18.45 18.93 18.54 19.14C18.63 19.36 18.75 19.55 18.92 19.72C19.08 19.88 19.27 20.01 19.49 20.1C19.7 20.19 19.93 20.24 20.16 20.24C20.39 20.24 20.62 20.19 20.84 20.1C21.05 20.01 21.24 19.88 21.41 19.72C21.57 19.55 21.7 19.36 21.78 19.14C21.87 18.93 21.91 18.7 21.91 18.47C21.91 18.36 21.95 18.26 22.03 18.18C22.11 18.11 22.21 18.07 22.31 18.07C22.42 18.07 22.52 18.11 22.6 18.18C22.67 18.26 22.72 18.36 22.72 18.47C22.71 18.7 22.76 18.93 22.84 19.14C22.93 19.36 23.06 19.55 23.22 19.72C23.38 19.88 23.58 20.01 23.79 20.1C24.01 20.19 24.24 20.24 24.47 20.24C24.7 20.24 24.93 20.19 25.14 20.1C25.36 20.01 25.55 19.88 25.71 19.72C25.87 19.55 26 19.36 26.09 19.14C26.18 18.93 26.22 18.7 26.22 18.47C26.22 18.36 26.26 18.26 26.34 18.18C26.41 18.11 26.51 18.07 26.62 18.07C26.73 18.07 26.83 18.11 26.9 18.18C26.98 18.26 27.02 18.36 27.02 18.47C27.02 19.15 26.75 19.79 26.27 20.27C25.79 20.75 25.15 21.02 24.47 21.02Z" fill="#9AA1EB" fill-opacity="1.000000" fill-rule="nonzero"/>
			<path id="Vector" d="M19.81 4.63L18.29 3.11C18.26 3.08 18.21 3.05 18.16 3.03C18.11 3.01 18.06 3 18.01 3C17.96 3 17.9 3.01 17.85 3.03C17.81 3.05 17.76 3.08 17.72 3.11L16.21 4.63C16.13 4.71 16.09 4.81 16.09 4.92C16.09 5.02 16.13 5.12 16.21 5.2C16.28 5.28 16.38 5.32 16.49 5.32C16.6 5.32 16.7 5.28 16.77 5.2L17.61 4.37L17.61 8.38C17.61 8.48 17.65 8.59 17.72 8.66C17.8 8.74 17.9 8.78 18.01 8.78C18.12 8.78 18.22 8.74 18.29 8.66C18.37 8.59 18.41 8.48 18.41 8.38L18.41 4.37L19.24 5.2C19.28 5.24 19.32 5.27 19.37 5.29C19.42 5.31 19.47 5.32 19.53 5.32C19.58 5.32 19.63 5.31 19.68 5.29C19.73 5.27 19.77 5.24 19.81 5.2C19.85 5.16 19.88 5.12 19.9 5.07C19.92 5.02 19.93 4.97 19.93 4.92C19.93 4.86 19.92 4.81 19.9 4.76C19.88 4.71 19.85 4.67 19.81 4.63Z" fill="#BFFDFF" fill-opacity="1.000000" fill-rule="nonzero"/>
			<path id="Vector" d="M11.91 5.86C11.87 5.83 11.83 5.8 11.78 5.78C11.73 5.76 11.68 5.75 11.62 5.75C11.57 5.75 11.52 5.76 11.47 5.78C11.42 5.8 11.38 5.83 11.34 5.86L9.82 7.38C9.74 7.46 9.7 7.56 9.7 7.67C9.7 7.77 9.74 7.88 9.82 7.95C9.9 8.03 10 8.07 10.1 8.07C10.21 8.07 10.31 8.03 10.39 7.95L11.22 7.12L11.22 11.13C11.22 11.24 11.26 11.34 11.34 11.41C11.41 11.49 11.52 11.53 11.62 11.53C11.73 11.53 11.83 11.49 11.91 11.41C11.98 11.34 12.03 11.24 12.03 11.13L12.03 7.12L12.86 7.95C12.93 8.02 13.04 8.06 13.14 8.06C13.25 8.06 13.35 8.02 13.42 7.95C13.5 7.87 13.54 7.77 13.54 7.66C13.54 7.56 13.5 7.46 13.43 7.38L11.91 5.86Z" fill="#BFFDFF" fill-opacity="1.000000" fill-rule="nonzero"/>
			<path id="Vector" d="M26.2 7.38L24.68 5.86C24.64 5.83 24.6 5.8 24.55 5.78C24.5 5.76 24.45 5.75 24.39 5.75C24.34 5.75 24.29 5.76 24.24 5.78C24.19 5.8 24.15 5.83 24.11 5.86L22.59 7.38C22.55 7.42 22.52 7.46 22.5 7.51C22.48 7.56 22.47 7.61 22.47 7.67C22.47 7.72 22.48 7.77 22.5 7.82C22.52 7.87 22.55 7.92 22.59 7.96C22.62 7.99 22.67 8.02 22.72 8.04C22.77 8.06 22.82 8.07 22.87 8.07C22.93 8.07 22.98 8.06 23.03 8.04C23.08 8.02 23.12 7.99 23.16 7.95L23.99 7.12L23.99 11.13C23.99 11.24 24.03 11.34 24.11 11.41C24.18 11.49 24.29 11.53 24.39 11.53C24.5 11.53 24.6 11.49 24.68 11.41C24.75 11.34 24.8 11.24 24.8 11.13L24.8 7.12L25.63 7.95C25.7 8.03 25.81 8.07 25.91 8.07C26.02 8.07 26.12 8.03 26.2 7.95C26.27 7.88 26.31 7.77 26.31 7.67C26.31 7.56 26.27 7.46 26.2 7.38Z" fill="#BFFDFF" fill-opacity="1.000000" fill-rule="nonzero"/>
			<path id="Vector" d="M15.84 9.25C15.79 9.25 15.73 9.26 15.69 9.28C15.64 9.3 15.59 9.33 15.55 9.37C15.52 9.41 15.49 9.45 15.47 9.5C15.45 9.55 15.44 9.6 15.44 9.65L15.44 13.04C15.44 13.15 15.48 13.25 15.55 13.33C15.63 13.4 15.73 13.45 15.84 13.45C15.95 13.45 16.05 13.4 16.12 13.33C16.2 13.25 16.24 13.15 16.24 13.04L16.24 9.65C16.24 9.6 16.23 9.55 16.21 9.5C16.19 9.45 16.16 9.41 16.12 9.37C16.09 9.33 16.04 9.3 15.99 9.28C15.94 9.26 15.89 9.25 15.84 9.25Z" fill="#BFFDFF" fill-opacity="1.000000" fill-rule="nonzero"/>
			<path id="Vector" d="M20.18 9.25C20.13 9.25 20.07 9.26 20.02 9.28C19.98 9.3 19.93 9.33 19.89 9.37C19.86 9.41 19.83 9.45 19.81 9.5C19.79 9.55 19.78 9.6 19.78 9.65L19.78 13.04C19.78 13.15 19.82 13.25 19.89 13.33C19.97 13.4 20.07 13.45 20.18 13.45C20.28 13.45 20.39 13.4 20.46 13.33C20.54 13.25 20.58 13.15 20.58 13.04L20.58 9.65C20.58 9.6 20.57 9.55 20.55 9.5C20.53 9.45 20.5 9.41 20.46 9.37C20.43 9.33 20.38 9.3 20.33 9.28C20.28 9.26 20.23 9.25 20.18 9.25Z" fill="#BFFDFF" fill-opacity="1.000000" fill-rule="nonzero"/>
		</g>
	</g>
</svg>
